#define busy_width 20
#define busy_height 20
static unsigned char busy_bits[] = {
   0x00, 0x0f, 0x00, 0xe0, 0x7f, 0x00, 0xf0, 0xff, 0x00, 0xf8, 0xff, 0x01,
   0xfc, 0xff, 0x03, 0xfe, 0xff, 0x07, 0xfe, 0xff, 0x07, 0xff, 0xff, 0x07,
   0xff, 0xff, 0x0f, 0xff, 0xff, 0x0f, 0xff, 0xff, 0x0f, 0xff, 0xff, 0x0f,
   0xfe, 0xff, 0x07, 0xfe, 0xff, 0x07, 0xfe, 0xff, 0x07, 0xfc, 0xff, 0x03,
   0xf8, 0xff, 0x01, 0xf8, 0xff, 0x00, 0xe0, 0x7f, 0x00, 0x80, 0x1f, 0x00 };
